<?xml version="1.0" encoding="utf-8"?>
<!-- Generator: Adobe Illustrator 25.2.3, SVG Export Plug-In . SVG Version: 6.00 Build 0)  -->
<svg version="1.1" id="Layer_1" xmlns="http://www.w3.org/2000/svg" xmlns:xlink="http://www.w3.org/1999/xlink" x="0px" y="0px"
	 viewBox="0 0 150 150" style="enable-background:new 0 0 150 150;" xml:space="preserve">
<g>
	<g>
		<path d="M93.3,23.8c-0.5,0-1-0.1-1.6-0.2c-10.8-2.9-22.6-2.9-33.4,0c-3.2,0.9-6.5-1-7.4-4.2c-0.9-3.2,1-6.5,4.2-7.4
			C68,8.5,82,8.5,94.9,12c3.2,0.9,5.1,4.2,4.2,7.4C98.4,22,95.9,23.8,93.3,23.8z"/>
	</g>
	<g>
		<path d="M75,90.5c-2.8,0-5-2.2-5-5V56.9c0-2.8,2.2-5,5-5s5,2.2,5,5v28.6C80,88.3,77.8,90.5,75,90.5z"/>
	</g>
	<path d="M115.4,48.1l2.2-2.2c2.3-2.3,2.3-6.1,0-8.5s-6.1-2.3-8.5,0l-2.8,2.8C97.4,34,86.6,30.4,75,30.4
		c-30.4,0-55.1,24.7-55.1,55.1c0,30.4,24.7,55.1,55.1,55.1c30.4,0,55.1-24.7,55.1-55.1C130.1,71.1,124.5,57.9,115.4,48.1z M75,128.6
		c-23.8,0-43.1-19.3-43.1-43.1c0-23.8,19.3-43.1,43.1-43.1c23.8,0,43.1,19.3,43.1,43.1C118.1,109.3,98.8,128.6,75,128.6z"/>
</g>
</svg>
