<?xml version="1.0" encoding="utf-8"?>
<!-- Generator: Adobe Illustrator 25.2.3, SVG Export Plug-In . SVG Version: 6.00 Build 0)  -->
<svg version="1.1" id="Layer_1" xmlns="http://www.w3.org/2000/svg" xmlns:xlink="http://www.w3.org/1999/xlink" x="0px" y="0px"
	 viewBox="0 0 150 150" style="enable-background:new 0 0 150 150;" xml:space="preserve">
<g>
	<g>
		<path d="M22.5,43.5c-1.4,0-2.8-0.5-4-1.5c-2.5-2.2-2.7-6-0.5-8.5c4.4-5,9.5-9.4,15.1-13.1c5.6-3.7,11.7-6.6,18-8.7
			c3.1-1,6.5,0.7,7.6,3.8c1,3.1-0.7,6.5-3.8,7.6c-5.3,1.8-10.4,4.2-15.2,7.3c-4.7,3.1-9,6.8-12.8,11C25.8,42.8,24.1,43.5,22.5,43.5z
			"/>
	</g>
	<g>
		<path d="M127.5,43.5c-1.7,0-3.3-0.7-4.5-2c-3.7-4.2-8-7.9-12.8-11c-4.7-3.1-9.8-5.6-15.2-7.3c-3.1-1-4.9-4.4-3.8-7.6
			c1-3.1,4.4-4.9,7.6-3.8c6.3,2.1,12.4,5,18,8.7s10.7,8.1,15.1,13.1c2.2,2.5,2,6.3-0.5,8.5C130.4,43,128.9,43.5,127.5,43.5z"/>
	</g>
	<g>
		<path d="M75.1,138.6c-17.8,0-35.2-8.6-45.7-24.6C12.9,88.9,19.9,55,45,38.5c12.2-8,26.7-10.8,41-7.9c14.3,2.9,26.6,11.3,34.6,23.5
			l0,0c8,12.2,10.8,26.7,7.9,41s-11.3,26.6-23.5,34.6C95.8,135.7,85.4,138.6,75.1,138.6z M74.9,41.5c-8.2,0-16.3,2.4-23.3,7
			c-9.5,6.3-16,15.8-18.3,27c-2.3,11.1-0.1,22.5,6.1,32c12.9,19.6,39.4,25.1,59,12.2c9.5-6.3,16-15.8,18.3-27
			c2.3-11.1,0.1-22.5-6.1-32l0,0c-6.3-9.5-15.8-16-27-18.3C80.7,41.8,77.8,41.5,74.9,41.5z"/>
	</g>
	<g>
		<path d="M96.4,110.4c-1.3,0-2.6-0.5-3.5-1.5L71.5,87.6C70.5,86.6,70,85.4,70,84V55.8c0-2.8,2.2-5,5-5c2.8,0,5,2.2,5,5V82
			l19.9,19.9c2,2,2,5.1,0,7.1C99,110,97.7,110.4,96.4,110.4z"/>
	</g>
</g>
</svg>
