<?xml version="1.0" encoding="utf-8"?>
<!-- Generator: Adobe Illustrator 25.2.3, SVG Export Plug-In . SVG Version: 6.00 Build 0)  -->
<svg version="1.1" id="Layer_1" xmlns="http://www.w3.org/2000/svg" xmlns:xlink="http://www.w3.org/1999/xlink" x="0px" y="0px"
	 viewBox="0 0 150 150" style="enable-background:new 0 0 150 150;" xml:space="preserve">
<g>
	<path d="M75,138.5c-35,0-63.5-28.5-63.5-63.5S40,11.5,75,11.5S138.5,40,138.5,75S110,138.5,75,138.5z M75,23.5
		c-28.4,0-51.5,23.1-51.5,51.5s23.1,51.5,51.5,51.5s51.5-23.1,51.5-51.5S103.4,23.5,75,23.5z"/>
</g>
<g>
	<path d="M100.8,105.8c-1.3,0-2.6-0.5-3.5-1.5L71.5,78.5C70.5,77.6,70,76.3,70,75V38.5c0-2.8,2.2-5,5-5c2.8,0,5,2.2,5,5v34.4
		l24.3,24.3c2,2,2,5.1,0,7.1C103.4,105.3,102.1,105.8,100.8,105.8z"/>
</g>
</svg>
