<?xml version="1.0" encoding="utf-8"?>
<!-- Generator: Adobe Illustrator 25.2.3, SVG Export Plug-In . SVG Version: 6.00 Build 0)  -->
<svg version="1.1" id="Layer_1" xmlns="http://www.w3.org/2000/svg" xmlns:xlink="http://www.w3.org/1999/xlink" x="0px" y="0px"
	 viewBox="0 0 150 150" style="enable-background:new 0 0 150 150;" xml:space="preserve">
<path d="M123.3,124.6h-1.8c-1.9-11-8.8-35.2-32.8-49.5c24-14.4,30.9-38.6,32.8-49.6h1.8c3.3,0,6-2.7,6-6s-2.7-6-6-6H26.7
	c-3.3,0-6,2.7-6,6s2.7,6,6,6h1.8c1.9,11,8.8,35.2,32.8,49.6c-24,14.4-30.9,38.6-32.8,49.5h-1.8c-3.3,0-6,2.7-6,6s2.7,6,6,6h96.7
	c3.3,0,6-2.7,6-6S126.6,124.6,123.3,124.6z M40.6,25.4h68.7c-2.3,10.9-9.8,32.8-34.4,43.1C50.4,58.3,42.9,36.3,40.6,25.4z"/>
</svg>
